<svg id="Layer_1" data-name="Layer 1" xmlns="http://www.w3.org/2000/svg" viewBox="0 0 200 200"><defs><style>.cls-1{fill:#2d2c28;}.cls-2{fill:gray;}</style></defs><title>Artboard 1</title><path class="cls-1" d="M28.62,89.46a3.09,3.09,0,0,1,.78-2.28,3.79,3.79,0,0,1,2.47-.91l2-.12a5.24,5.24,0,0,0,3.88-1.63A6.78,6.78,0,0,0,39.06,80V52a3.77,3.77,0,0,1,4-4,4,4,0,0,1,3,1.09A3.94,3.94,0,0,1,47.13,52V80q0,11.82-11.7,12.7l-2,.13Q28.61,93,28.62,89.46Z"/><path class="cls-1" d="M56,90.21a3.73,3.73,0,0,1-2-3.38,3,3,0,0,1,.69-2A2.17,2.17,0,0,1,56.39,84a6.93,6.93,0,0,1,2.94,1A27.32,27.32,0,0,0,63,86.46a14.89,14.89,0,0,0,4.22.5,8,8,0,0,0,4.1-.88,2.71,2.71,0,0,0,1.47-2.44A2.36,2.36,0,0,0,72.19,82a5.47,5.47,0,0,0-2.13-1.16,45.08,45.08,0,0,0-4.66-1.22q-5.57-1.13-8-3.19A7.1,7.1,0,0,1,55,70.69a8.21,8.21,0,0,1,1.63-5,10.54,10.54,0,0,1,4.47-3.44,16.3,16.3,0,0,1,6.48-1.22,19.41,19.41,0,0,1,5.07.66A15.4,15.4,0,0,1,77,63.62a3.78,3.78,0,0,1,2,3.32,3.21,3.21,0,0,1-.69,2.1,2.11,2.11,0,0,1-1.69.84,3.37,3.37,0,0,1-1.34-.28,18,18,0,0,1-1.66-.84,26.15,26.15,0,0,0-3.13-1.41,9.75,9.75,0,0,0-3.25-.47,6.3,6.3,0,0,0-3.66.94,3,3,0,0,0-1.34,2.56,2.6,2.6,0,0,0,1.38,2.38A19.67,19.67,0,0,0,69,74.38a30.39,30.39,0,0,1,6.57,2,7.68,7.68,0,0,1,3.41,2.82,8.16,8.16,0,0,1,1,4.32,8,8,0,0,1-3.53,6.82Q72.91,92.9,67,92.9,60.21,92.9,56,90.21Z"/><path class="cls-1" d="M109,64.22q3.1,3.16,3.1,9.6V89.08a3.53,3.53,0,0,1-1,2.66,3.79,3.79,0,0,1-2.75,1,3.66,3.66,0,0,1-2.66-1,3.49,3.49,0,0,1-1-2.63V87.71a8.16,8.16,0,0,1-3.35,3.82,10,10,0,0,1-5.29,1.38,12.28,12.28,0,0,1-5.57-1.25,9.9,9.9,0,0,1-3.94-3.44,8.69,8.69,0,0,1-1.44-4.88A7.73,7.73,0,0,1,86.83,78a10.35,10.35,0,0,1,5.6-2.81,51,51,0,0,1,10.7-.88h1.56V72.88a6.41,6.41,0,0,0-1.31-4.47A5.59,5.59,0,0,0,99.12,67a13.53,13.53,0,0,0-3.69.53q-1.88.53-4.44,1.53a6.26,6.26,0,0,1-2.38.81,2.35,2.35,0,0,1-1.85-.81A3.09,3.09,0,0,1,86,66.94a3.21,3.21,0,0,1,.53-1.85,5,5,0,0,1,1.78-1.47,20.43,20.43,0,0,1,5.22-1.88,27,27,0,0,1,6-.69Q105.94,61.06,109,64.22Zm-6.32,21a7.58,7.58,0,0,0,2-5.41V78.45h-1.13a43.1,43.1,0,0,0-6.51.38,6.31,6.31,0,0,0-3.32,1.31,3.35,3.35,0,0,0-1,2.57A4.24,4.24,0,0,0,94.15,86a5,5,0,0,0,3.47,1.28A6.68,6.68,0,0,0,102.72,85.17Z"/><path class="cls-1" d="M164.09,64q2.66,3,2.66,9.6V89a3.52,3.52,0,0,1-1.09,2.78,4.14,4.14,0,0,1-2.85,1,4,4,0,0,1-2.78-1A3.52,3.52,0,0,1,158.93,89V73.63q0-3.44-1.22-4.91A4.56,4.56,0,0,0,154,67.25a6.13,6.13,0,0,0-4.88,2.1,8.45,8.45,0,0,0-1.81,5.72V89a3.52,3.52,0,0,1-1.09,2.78,4,4,0,0,1-2.78,1,4.16,4.16,0,0,1-2.81-1A3.47,3.47,0,0,1,139.47,89V73.63q0-3.44-1.22-4.91a4.56,4.56,0,0,0-3.72-1.47,6,6,0,0,0-4.85,2.1,8.55,8.55,0,0,0-1.78,5.72V89a3.47,3.47,0,0,1-1.13,2.78,4.16,4.16,0,0,1-2.82,1,4,4,0,0,1-2.78-1A3.52,3.52,0,0,1,120.08,89V64.81a3.31,3.31,0,0,1,1.13-2.69,4.25,4.25,0,0,1,2.82-.94,3.89,3.89,0,0,1,2.66.91,3.28,3.28,0,0,1,1,2.6v1.5a9.8,9.8,0,0,1,3.85-3.82,11.37,11.37,0,0,1,5.54-1.31q6.88,0,9.2,5.76a10.34,10.34,0,0,1,4.07-4.19,11.86,11.86,0,0,1,6.07-1.56Q161.43,61.06,164.09,64Z"/><path class="cls-1" d="M91,96.41a3.91,3.91,0,0,1,2.16-.63,3.87,3.87,0,0,1,2.6.94,3.13,3.13,0,0,1,1.09,2.5,6.32,6.32,0,0,1-.31,1.63L83,138.07A3.88,3.88,0,0,1,81.39,140a4.89,4.89,0,0,1-2.53.69,5,5,0,0,1-2.56-.69,3.53,3.53,0,0,1-1.63-1.94L64.28,108.61,53.7,138.07A3.87,3.87,0,0,1,52,140,5,5,0,0,1,47,140a3.56,3.56,0,0,1-1.59-1.94L31.93,100.85a5.25,5.25,0,0,1-.31-1.63,3.06,3.06,0,0,1,1.16-2.5,4.39,4.39,0,0,1,5-.31,3.48,3.48,0,0,1,1.44,1.88l10.64,30.59,10.95-30.4a4,4,0,0,1,1.44-2,3.67,3.67,0,0,1,2.19-.72,3.82,3.82,0,0,1,2.22.72,3.89,3.89,0,0,1,1.47,2l10.64,30.72,10.82-31A3.53,3.53,0,0,1,91,96.41Z"/><path class="cls-1" d="M125.3,132.69a3.39,3.39,0,0,1,.66,2.19q0,1.94-2.32,3.25a21,21,0,0,1-4.82,1.91,19.91,19.91,0,0,1-5.13.72q-7.38,0-11.7-4.25t-4.32-11.64a17.85,17.85,0,0,1,1.88-8.32,13.66,13.66,0,0,1,5.29-5.63,15,15,0,0,1,7.73-2,13.87,13.87,0,0,1,7.19,1.81,12.31,12.31,0,0,1,4.75,5.13,17,17,0,0,1,1.69,7.82q0,2.69-2.38,2.69H105.38q.38,4.32,2.44,6.35a8.21,8.21,0,0,0,6,2,11.38,11.38,0,0,0,3.53-.5,35.1,35.1,0,0,0,3.47-1.38,6.92,6.92,0,0,1,2.75-1A2.11,2.11,0,0,1,125.3,132.69Zm-17.64-16.27a9.44,9.44,0,0,0-2.28,5.76h14.14a8.92,8.92,0,0,0-1.88-5.79,6.19,6.19,0,0,0-4.88-2A6.72,6.72,0,0,0,107.66,116.43Z"/><path class="cls-1" d="M157.24,110.86a13.05,13.05,0,0,1,4.79,5.51,19,19,0,0,1,1.72,8.32A19.57,19.57,0,0,1,162,133.1a13.29,13.29,0,0,1-4.82,5.66,12.67,12.67,0,0,1-7,2,12,12,0,0,1-5.91-1.44,9.78,9.78,0,0,1-4-4v1.56a3.52,3.52,0,0,1-1.06,2.69,3.94,3.94,0,0,1-2.82,1,3.83,3.83,0,0,1-2.78-1,3.57,3.57,0,0,1-1-2.69V99.47a3.39,3.39,0,0,1,1.09-2.63,4.05,4.05,0,0,1,2.85-1,4.11,4.11,0,0,1,2.82.94,3.25,3.25,0,0,1,1.06,2.57v14.77a9.35,9.35,0,0,1,3.94-3.85,12.34,12.34,0,0,1,5.82-1.35A12.94,12.94,0,0,1,157.24,110.86Zm-3.38,21.21q2.07-2.63,2.06-7.38t-2-7.2a7.91,7.91,0,0,0-11.57,0q-2,2.53-2,7.29t2,7.32a7.71,7.71,0,0,0,11.54-.06Z"/><path class="cls-2" d="M36.08,156.21a3.74,3.74,0,0,0,1.88-.43,3.41,3.41,0,0,0,1.19-1.13,4.6,4.6,0,0,0,.62-1.59,9.23,9.23,0,0,0,.18-1.8v-6h1.18v6a9.51,9.51,0,0,1-.27,2.3,5.45,5.45,0,0,1-.87,1.91,4.27,4.27,0,0,1-1.56,1.31,5.1,5.1,0,0,1-2.34.49,5,5,0,0,1-2.38-.51,4.37,4.37,0,0,1-1.56-1.36,5.5,5.5,0,0,1-.84-1.92,9.73,9.73,0,0,1-.25-2.22v-6h1.16v6a9,9,0,0,0,.19,1.83,4.63,4.63,0,0,0,.63,1.58,3.36,3.36,0,0,0,1.19,1.11A3.7,3.7,0,0,0,36.08,156.21Z"/><path class="cls-2" d="M51.07,157.18H49.93v-4.9a4.27,4.27,0,0,0-.46-2.27A1.58,1.58,0,0,0,48,149.3a2.93,2.93,0,0,0-1,.19,3.39,3.39,0,0,0-.93.52,4,4,0,0,0-.77.8,3.14,3.14,0,0,0-.49,1v5.37H43.7v-8.77h1v2a4.12,4.12,0,0,1,1.54-1.55,4.22,4.22,0,0,1,2.18-.59,2.58,2.58,0,0,1,1.23.27,2.09,2.09,0,0,1,.81.76,3.47,3.47,0,0,1,.44,1.19,8.41,8.41,0,0,1,.13,1.57Z"/><path class="cls-2" d="M62.09,157.35a3.63,3.63,0,0,1-1.91-.52,3.83,3.83,0,0,1-1.35-1.35v1.7h-1V144.9h1.14v5.35a5,5,0,0,1,1.41-1.44,3.38,3.38,0,0,1,1.92-.55,3.5,3.5,0,0,1,1.66.39,3.88,3.88,0,0,1,1.24,1,4.86,4.86,0,0,1,.79,1.46,5.14,5.14,0,0,1,.28,1.67,4.81,4.81,0,0,1-.32,1.75,4.61,4.61,0,0,1-.87,1.44,4.13,4.13,0,0,1-1.32,1A3.77,3.77,0,0,1,62.09,157.35Zm-.27-1a3,3,0,0,0,1.32-.29,3.24,3.24,0,0,0,1-.79,3.8,3.8,0,0,0,.67-1.13,3.6,3.6,0,0,0,.24-1.3,4,4,0,0,0-.23-1.33,3.7,3.7,0,0,0-.64-1.13,3.08,3.08,0,0,0-1-.79,2.76,2.76,0,0,0-1.27-.29,2.68,2.68,0,0,0-1,.18,3.36,3.36,0,0,0-.84.48,3.84,3.84,0,0,0-.69.7,4.41,4.41,0,0,0-.5.83v2.73a1.87,1.87,0,0,0,.36.85,3,3,0,0,0,.71.68,3.72,3.72,0,0,0,.89.45A2.74,2.74,0,0,0,61.82,156.34Z"/><path class="cls-2" d="M68.24,144.9h1.14v10.3a1.06,1.06,0,0,0,.27.77,1,1,0,0,0,.76.28,2.32,2.32,0,0,0,.44-.05,2.79,2.79,0,0,0,.47-.13l.2.93a3.8,3.8,0,0,1-.78.22,4.51,4.51,0,0,1-.8.08,1.7,1.7,0,0,1-1.25-.45,1.68,1.68,0,0,1-.45-1.25Z"/><path class="cls-2" d="M76.5,157.35a4.14,4.14,0,0,1-1.75-.36,4.28,4.28,0,0,1-1.37-1,4.45,4.45,0,0,1-.9-1.45,4.75,4.75,0,0,1-.32-1.73,4.68,4.68,0,0,1,.33-1.75,4.57,4.57,0,0,1,.91-1.45,4.39,4.39,0,0,1,1.37-1,4,4,0,0,1,1.73-.37,4.08,4.08,0,0,1,1.74.37,4.36,4.36,0,0,1,1.38,1,4.57,4.57,0,0,1,.91,1.45,4.68,4.68,0,0,1,.33,1.75,4.75,4.75,0,0,1-.32,1.73,4.43,4.43,0,0,1-.9,1.45,4.24,4.24,0,0,1-1.38,1A4.2,4.2,0,0,1,76.5,157.35Zm-3.18-4.51a3.68,3.68,0,0,0,.25,1.37,3.72,3.72,0,0,0,.68,1.11,3.08,3.08,0,0,0,1,.75,2.9,2.9,0,0,0,1.24.27,2.82,2.82,0,0,0,1.24-.28,3.29,3.29,0,0,0,1-.76,3.63,3.63,0,0,0,.69-1.12,3.87,3.87,0,0,0,0-2.75,3.6,3.6,0,0,0-.69-1.13,3.29,3.29,0,0,0-1-.76,2.82,2.82,0,0,0-1.24-.28,2.77,2.77,0,0,0-1.23.28,3.27,3.27,0,0,0-1,.77,3.72,3.72,0,0,0-.69,1.14A3.79,3.79,0,0,0,73.32,152.84Z"/><path class="cls-2" d="M86.29,157.3a3.63,3.63,0,0,1-1.66-.38,4.28,4.28,0,0,1-1.29-1,4.58,4.58,0,0,1-.85-1.43,4.73,4.73,0,0,1-.3-1.67,5.19,5.19,0,0,1,.29-1.74,4.47,4.47,0,0,1,.83-1.46,4,4,0,0,1,1.29-1,3.67,3.67,0,0,1,1.66-.37,3.37,3.37,0,0,1,2,.56,5.39,5.39,0,0,1,1.41,1.42v-1.83h1v8.8a3.57,3.57,0,0,1-.34,1.61,3.44,3.44,0,0,1-.92,1.17,4,4,0,0,1-1.36.71,5.75,5.75,0,0,1-1.66.24,4.82,4.82,0,0,1-2.44-.54,4.31,4.31,0,0,1-1.5-1.45l.71-.55a3.15,3.15,0,0,0,1.38,1.24,4.37,4.37,0,0,0,1.85.39,4.1,4.1,0,0,0,1.21-.18,3,3,0,0,0,1-.52,2.46,2.46,0,0,0,.68-.87,2.84,2.84,0,0,0,.25-1.24v-1.73a3.67,3.67,0,0,1-1.38,1.33A3.73,3.73,0,0,1,86.29,157.3Zm.32-1a2.79,2.79,0,0,0,1-.18,3.33,3.33,0,0,0,1.55-1.2,2.16,2.16,0,0,0,.35-.79v-2.71a3.52,3.52,0,0,0-1.23-1.56,3.68,3.68,0,0,0-.87-.46,2.84,2.84,0,0,0-2.25.14,3.17,3.17,0,0,0-1,.82,3.63,3.63,0,0,0-.61,1.14,4.1,4.1,0,0,0-.21,1.29,3.63,3.63,0,0,0,.25,1.35,3.52,3.52,0,0,0,.7,1.12,3.34,3.34,0,0,0,1,.76A3,3,0,0,0,86.61,156.34Z"/><path class="cls-2" d="M101.25,157.35a4.2,4.2,0,0,1-1.76-.36,4.3,4.3,0,0,1-1.39-1,4.63,4.63,0,0,1-.92-1.46,4.74,4.74,0,0,1-.33-1.77,4.63,4.63,0,0,1,.33-1.74,4.53,4.53,0,0,1,.91-1.43,4.33,4.33,0,0,1,1.39-1,4.27,4.27,0,0,1,4.88,1,4.64,4.64,0,0,1,1.21,3.15V153a.65.65,0,0,1,0,.19h-7.5a3.72,3.72,0,0,0,.33,1.3,3.61,3.61,0,0,0,.72,1,3.19,3.19,0,0,0,1,.68,3,3,0,0,0,1.2.24,3.14,3.14,0,0,0,.84-.12,3.41,3.41,0,0,0,.77-.32,2.89,2.89,0,0,0,.64-.5,2.09,2.09,0,0,0,.44-.65l1,.27a2.93,2.93,0,0,1-.57.88,4,4,0,0,1-.86.69,4.25,4.25,0,0,1-1.08.46A4.72,4.72,0,0,1,101.25,157.35Zm3.23-5a3.52,3.52,0,0,0-1-2.29,3.16,3.16,0,0,0-1-.66,3.11,3.11,0,0,0-1.2-.23A3.15,3.15,0,0,0,99,150a3.25,3.25,0,0,0-.69,1,3.84,3.84,0,0,0-.31,1.28Z"/><path class="cls-2" d="M114.71,157.18h-1.14v-4.9a4.27,4.27,0,0,0-.46-2.27,1.58,1.58,0,0,0-1.42-.71,2.92,2.92,0,0,0-1,.19,3.35,3.35,0,0,0-.93.52,3.92,3.92,0,0,0-.77.8,3.1,3.1,0,0,0-.49,1v5.37h-1.14v-8.77h1v2a4.13,4.13,0,0,1,1.54-1.55,4.23,4.23,0,0,1,2.18-.59,2.58,2.58,0,0,1,1.23.27,2.11,2.11,0,0,1,.81.76,3.49,3.49,0,0,1,.44,1.19,8.57,8.57,0,0,1,.13,1.57Z"/><path class="cls-2" d="M121.49,144.9h1.14v10.3a1.06,1.06,0,0,0,.27.77,1,1,0,0,0,.76.28,2.32,2.32,0,0,0,.44-.05,2.81,2.81,0,0,0,.47-.13l.2.93a3.79,3.79,0,0,1-.78.22,4.52,4.52,0,0,1-.8.08,1.7,1.7,0,0,1-1.24-.45,1.68,1.68,0,0,1-.46-1.25Z"/><path class="cls-2" d="M128.22,157.35a3.13,3.13,0,0,1-1.15-.21,2.87,2.87,0,0,1-.92-.58,2.6,2.6,0,0,1-.83-1.93,2.16,2.16,0,0,1,.27-1.06,2.56,2.56,0,0,1,.76-.84,3.71,3.71,0,0,1,1.16-.55A5.36,5.36,0,0,1,129,152a8.12,8.12,0,0,1,1.36.12,6,6,0,0,1,1.23.34v-.79a2.55,2.55,0,0,0-.66-1.84,2.41,2.41,0,0,0-1.82-.68,3.86,3.86,0,0,0-1.38.27,6.62,6.62,0,0,0-1.43.78l-.4-.76a5.91,5.91,0,0,1,3.3-1.14,3.53,3.53,0,0,1,2.59.93,3.42,3.42,0,0,1,.94,2.56v4c0,.31.14.47.42.47v1a2.77,2.77,0,0,1-.44.05A1,1,0,0,1,132,157a.82.82,0,0,1-.26-.61l0-.69a4,4,0,0,1-1.52,1.21A4.67,4.67,0,0,1,128.22,157.35Zm.27-.87a3.94,3.94,0,0,0,1.64-.34,2.67,2.67,0,0,0,1.14-.89,1,1,0,0,0,.23-.33.83.83,0,0,0,.08-.33v-1.43a7.11,7.11,0,0,0-1.19-.34,6.69,6.69,0,0,0-1.25-.12,3.49,3.49,0,0,0-2,.5,1.53,1.53,0,0,0-.76,1.33,1.8,1.8,0,0,0,.16.76,1.89,1.89,0,0,0,.44.62,2.06,2.06,0,0,0,.66.41A2.23,2.23,0,0,0,128.49,156.47Z"/><path class="cls-2" d="M150.06,148.41h1.13l-3.77,8.77h-.94l-1.88-4.47-1.87,4.47h-.94L138,148.41h1.11l3.2,7.59,1.67-4-1.5-3.57h1l1.14,2.86,1.14-2.86h1l-1.5,3.57,1.67,4Z"/><path class="cls-2" d="M156.17,157.35a4.2,4.2,0,0,1-1.76-.36,4.3,4.3,0,0,1-1.39-1,4.63,4.63,0,0,1-.92-1.46,4.74,4.74,0,0,1-.33-1.77,4.63,4.63,0,0,1,.33-1.74,4.53,4.53,0,0,1,.91-1.43,4.31,4.31,0,0,1,1.39-1,4.27,4.27,0,0,1,4.88,1,4.63,4.63,0,0,1,1.21,3.15V153a.65.65,0,0,1,0,.19H153a3.76,3.76,0,0,0,.33,1.3,3.59,3.59,0,0,0,.72,1,3.2,3.2,0,0,0,1,.68,3,3,0,0,0,1.2.24,3.13,3.13,0,0,0,.84-.12,3.34,3.34,0,0,0,.77-.32,2.86,2.86,0,0,0,.64-.5,2.16,2.16,0,0,0,.44-.65l1,.27a2.93,2.93,0,0,1-.57.88,4,4,0,0,1-.86.69,4.29,4.29,0,0,1-1.08.46A4.71,4.71,0,0,1,156.17,157.35Zm3.23-5a3.6,3.6,0,0,0-.33-1.29,3.55,3.55,0,0,0-.71-1,3.17,3.17,0,0,0-1-.66,3.09,3.09,0,0,0-1.2-.23A3.15,3.15,0,0,0,154,150a3.25,3.25,0,0,0-.69,1,3.82,3.82,0,0,0-.31,1.28Z"/><path class="cls-2" d="M166.55,157.35a3.62,3.62,0,0,1-1.91-.52,3.82,3.82,0,0,1-1.36-1.35v1.7h-1V144.9h1.14v5.35a5,5,0,0,1,1.41-1.44,3.38,3.38,0,0,1,1.92-.55,3.5,3.5,0,0,1,1.66.39,3.88,3.88,0,0,1,1.24,1,4.86,4.86,0,0,1,.79,1.46,5.14,5.14,0,0,1,.28,1.67,4.81,4.81,0,0,1-.32,1.75,4.61,4.61,0,0,1-.87,1.44,4.13,4.13,0,0,1-1.32,1A3.77,3.77,0,0,1,166.55,157.35Zm-.27-1a3,3,0,0,0,1.32-.29,3.24,3.24,0,0,0,1-.79,3.8,3.8,0,0,0,.67-1.13,3.6,3.6,0,0,0,.24-1.3,4,4,0,0,0-.23-1.33,3.7,3.7,0,0,0-.64-1.13,3.08,3.08,0,0,0-1-.79,2.76,2.76,0,0,0-1.27-.29,2.67,2.67,0,0,0-1,.18,3.37,3.37,0,0,0-.84.48,3.83,3.83,0,0,0-.69.7,4.37,4.37,0,0,0-.51.83v2.73a1.86,1.86,0,0,0,.36.85,3,3,0,0,0,.71.68,3.73,3.73,0,0,0,.89.45A2.74,2.74,0,0,0,166.29,156.34Z"/></svg>